<?xml version="1.0" encoding="UTF-8" standalone="no"?>
<svg
   id="Layer_1"
   version="1.1"
   viewBox="0 0 166.81 54.009998"
   sodipodi:docname="Color_HodosWallet.svg"
   inkscape:version="1.4.3 (0d15f75, 2025-12-25)"
   xmlns:inkscape="http://www.inkscape.org/namespaces/inkscape"
   xmlns:sodipodi="http://sodipodi.sourceforge.net/DTD/sodipodi-0.dtd"
   xmlns:xlink="http://www.w3.org/1999/xlink"
   xmlns="http://www.w3.org/2000/svg"
   xmlns:svg="http://www.w3.org/2000/svg">
  <sodipodi:namedview
     id="namedview1"
     pagecolor="#ffffff"
     bordercolor="#000000"
     borderopacity="0.25"
     inkscape:showpageshadow="2"
     inkscape:pageopacity="0.0"
     inkscape:pagecheckerboard="0"
     inkscape:deskcolor="#d1d1d1"
     inkscape:zoom="10.646844"
     inkscape:cx="83.404999"
     inkscape:cy="27.003308"
     inkscape:window-width="1920"
     inkscape:window-height="1017"
     inkscape:window-x="-8"
     inkscape:window-y="-8"
     inkscape:window-maximized="1"
     inkscape:current-layer="Layer_1" />
  <!-- Generator: Adobe Illustrator 29.8.3, SVG Export Plug-In . SVG Version: 2.1.1 Build 3)  -->
  <defs
     id="defs2">
    <style
       id="style1">
      .st0 {
        fill: #a67c00;
      }

      .st1 {
        fill: url(#linear-gradient2);
      }

      .st2 {
        fill: url(#linear-gradient1);
      }

      .st3 {
        fill: url(#linear-gradient3);
      }

      .st4 {
        fill: url(#linear-gradient6);
      }

      .st5 {
        fill: url(#linear-gradient7);
      }

      .st6 {
        fill: url(#linear-gradient5);
      }

      .st7 {
        fill: url(#linear-gradient4);
      }

      .st8 {
        fill: url(#linear-gradient);
      }

      .st9 {
        fill: #dfbd69;
      }

      .st10 {
        fill: #a57d2d;
      }
    </style>
    <linearGradient
       id="linear-gradient"
       x1="32.82"
       y1="13.97"
       x2="18.73"
       y2="10.74"
       gradientUnits="userSpaceOnUse">
      <stop
         offset="0"
         stop-color="#fff"
         id="stop1" />
      <stop
         offset="1"
         stop-color="#a67c00"
         id="stop2" />
    </linearGradient>
    <linearGradient
       id="linear-gradient1"
       x1="40.330002"
       y1="21.9"
       x2="32.650002"
       y2="9.6499996"
       xlink:href="#linear-gradient" />
    <linearGradient
       id="linear-gradient2"
       x1="40.029999"
       y1="32.82"
       x2="43.259998"
       y2="18.73"
       xlink:href="#linear-gradient" />
    <linearGradient
       id="linear-gradient3"
       x1="32.099998"
       y1="40.330002"
       x2="44.349998"
       y2="32.650002"
       xlink:href="#linear-gradient" />
    <linearGradient
       id="linear-gradient4"
       x1="21.18"
       y1="40.029999"
       x2="35.27"
       y2="43.259998"
       xlink:href="#linear-gradient" />
    <linearGradient
       id="linear-gradient5"
       x1="13.67"
       y1="32.099998"
       x2="21.35"
       y2="44.349998"
       xlink:href="#linear-gradient" />
    <linearGradient
       id="linear-gradient6"
       x1="13.97"
       y1="21.18"
       x2="10.74"
       y2="35.27"
       xlink:href="#linear-gradient" />
    <linearGradient
       id="linear-gradient7"
       x1="21.9"
       y1="13.66"
       x2="9.6499996"
       y2="21.35"
       xlink:href="#linear-gradient" />
    <linearGradient
       xlink:href="#linear-gradient"
       id="linearGradient1"
       gradientUnits="userSpaceOnUse"
       x1="32.82"
       y1="13.97"
       x2="18.73"
       y2="10.74" />
  </defs>
  <g
     id="g14">
    <g
       id="g8">
      <path
         style="font-size:16px;line-height:22.24px;font-family:'Founders Grotesk';-inkscape-font-specification:'Founders Grotesk, Normal';letter-spacing:9.19px;word-spacing:0.01px;fill:#dfbd69"
         d="m 162.86789,46.030437 v -8.928 h 3.728 v -1.152 h -8.768 v 1.152 h 3.664 v 8.928 z"
         id="path27" />
      <path
         style="font-size:16px;line-height:22.24px;font-family:'Founders Grotesk';-inkscape-font-specification:'Founders Grotesk, Normal';letter-spacing:9.19px;word-spacing:0.01px;fill:#dfbd69"
         d="m 147.69389,44.878437 h -5.84 v -3.472 h 4.528 v -1.136 h -4.528 v -3.168 h 5.696 v -1.152 h -7.04 v 10.08 h 7.184 z"
         id="path26" />
      <path
         style="font-size:16px;line-height:22.24px;font-family:'Founders Grotesk';-inkscape-font-specification:'Founders Grotesk, Normal';letter-spacing:9.19px;word-spacing:0.01px;fill:#dfbd69"
         d="m 122.93589,35.950437 v 10.08 h 7.008 v -1.152 h -5.616 v -8.928 z"
         id="path25" />
      <path
         style="font-size:16px;line-height:22.24px;font-family:'Founders Grotesk';-inkscape-font-specification:'Founders Grotesk, Normal';letter-spacing:9.19px;word-spacing:0.01px;fill:#dfbd69"
         d="m 105.36188,35.950437 v 10.08 h 7.008 v -1.152 h -5.616 v -8.928 z"
         id="path24" />
      <path
         style="font-size:16px;line-height:22.24px;font-family:'Founders Grotesk';-inkscape-font-specification:'Founders Grotesk, Normal';letter-spacing:9.19px;word-spacing:0.01px;fill:#dfbd69"
         d="m 89.291877,35.950437 -4.112,10.08 h 1.36 l 1.184,-2.96 h 4.592 l 1.216,2.96 h 1.472 l -4.192,-10.08 z m 0.672,1.536 h 0.064 l 1.84,4.48 h -3.712 z"
         id="path23" />
      <path
         style="font-size:16px;line-height:22.24px;font-family:'Founders Grotesk';-inkscape-font-specification:'Founders Grotesk, Normal';letter-spacing:9.19px;word-spacing:0.01px;fill:#dfbd69"
         d="m 70.373885,35.950437 h -1.296 l -2.192,8.352 h -0.064 l -2.112,-8.352 h -1.344 l 2.576,10.08 h 1.6 l 2.144,-8.048 h 0.064 l 2.096,8.048 h 1.616 l 2.576,-10.08 h -1.296 l -2.064,8.384 h -0.064 z"
         id="text22" />
    </g>
    <g
       id="g13">
      <path
         class="st0"
         d="M 63.17,27.98 V 8.18 h 4.78 v 7.83 h 8.64 V 8.18 h 4.78 v 19.8 h -4.78 v -8.11 h -8.64 v 8.11 z"
         id="path9" />
      <path
         class="st0"
         d="m 94.39,28.36 c -5.75,0 -10.15,-4.18 -10.15,-10.28 0,-6.1 4.4,-10.28 10.15,-10.28 5.75,0 10.18,4.18 10.18,10.28 0,6.1 -4.4,10.28 -10.18,10.28 z m 0,-16.38 c -3.21,0 -5.25,2.42 -5.25,6.1 0,3.68 2.04,6.1 5.25,6.1 3.21,0 5.28,-2.42 5.28,-6.1 0,-3.68 -2.04,-6.1 -5.28,-6.1 z"
         id="path10" />
      <path
         class="st0"
         d="m 107.44,8.18 h 7.67 c 6.51,0 10.53,3.71 10.53,9.9 0,6.19 -4.02,9.9 -10.53,9.9 h -7.67 z m 7.35,16.03 c 3.74,0 5.91,-2.26 5.91,-6.16 0,-3.9 -2.17,-6.1 -5.91,-6.1 h -2.58 v 12.26 z"
         id="path11" />
      <path
         class="st0"
         d="m 137.7,28.36 c -5.75,0 -10.15,-4.18 -10.15,-10.28 0,-6.1 4.4,-10.28 10.15,-10.28 5.75,0 10.18,4.18 10.18,10.28 0,6.1 -4.4,10.28 -10.18,10.28 z m 0,-16.38 c -3.21,0 -5.25,2.42 -5.25,6.1 0,3.68 2.04,6.1 5.25,6.1 3.21,0 5.28,-2.42 5.28,-6.1 0,-3.68 -2.04,-6.1 -5.28,-6.1 z"
         id="path12" />
      <path
         class="st0"
         d="m 154.04,20.78 c 0.19,2.74 2.23,3.83 4.68,3.83 2.11,0 3.43,-0.82 3.43,-2.14 0,-1.32 -1.16,-1.63 -2.89,-1.98 l -3.71,-0.66 c -3.14,-0.6 -5.38,-2.36 -5.38,-5.72 0,-3.9 3.05,-6.32 7.86,-6.32 5.38,0 8.3,2.67 8.39,7.07 l -4.4,0.13 c -0.13,-2.33 -1.73,-3.46 -4.02,-3.46 -2.01,0 -3.14,0.82 -3.14,2.17 0,1.13 0.88,1.54 2.33,1.82 l 3.71,0.66 c 4.05,0.72 5.91,2.73 5.91,5.97 0,4.09 -3.55,6.19 -8.08,6.19 -5.28,0 -9.05,-2.61 -9.05,-7.42 l 4.37,-0.16 z"
         id="path13" />
    </g>
  </g>
  <g
     id="g22">
    <path
       class="st8"
       d="m 17.56,23.03 c 1.02,-2.43 2.97,-4.46 5.58,-5.51 3.22,-4.22 7.09,-6.68 10.73,-8.1 C 31.49,3.48 26.62,0 26.62,0 c 0,0 -4.46,3.47 -7.2,9.71 -1.57,3.57 -2.57,8.05 -1.86,13.32 z"
       id="path14"
       style="fill:url(#linearGradient1)" />
    <path
       class="st2"
       d="m 23.14,17.51 c 0.15,-0.06 0.3,-0.13 0.46,-0.19 2.5,-0.88 5.1,-0.72 7.37,0.24 5.26,-0.71 9.75,0.29 13.32,1.86 2.52,-5.88 1.54,-11.78 1.54,-11.78 0,0 -5.6,-0.7 -11.96,1.78 -3.63,1.42 -7.51,3.88 -10.73,8.1 z"
       id="path15"
       style="fill:url(#linear-gradient1)" />
    <path
       class="st1"
       d="m 54,26.62 c 0,0 -3.47,-4.46 -9.71,-7.2 -3.57,-1.57 -8.06,-2.57 -13.32,-1.86 2.43,1.02 4.45,2.97 5.51,5.57 4.22,3.22 6.69,7.1 8.1,10.73 C 50.52,31.48 54,26.62 54,26.62 Z"
       id="path16"
       style="fill:url(#linear-gradient2)" />
    <path
       class="st3"
       d="m 36.48,23.14 c 0.06,0.16 0.13,0.31 0.19,0.47 0.85,2.42 0.76,5.02 -0.24,7.37 0.71,5.26 -0.29,9.74 -1.86,13.31 5.88,2.52 11.78,1.54 11.78,1.54 0,0 0.7,-5.6 -1.78,-11.96 -1.42,-3.63 -3.88,-7.51 -8.1,-10.73 z"
       id="path17"
       style="fill:url(#linear-gradient3)" />
    <path
       class="st7"
       d="m 36.44,30.98 c -0.07,0.15 -0.12,0.31 -0.2,0.46 -1.11,2.32 -3.02,4.09 -5.38,5.05 -3.22,4.22 -7.09,6.68 -10.73,8.1 2.38,5.94 7.24,9.42 7.24,9.42 0,0 4.46,-3.47 7.2,-9.71 1.57,-3.57 2.57,-8.05 1.86,-13.31 z"
       id="path18"
       style="fill:url(#linear-gradient4)" />
    <path
       class="st6"
       d="m 30.86,36.49 c -0.16,0.06 -0.31,0.13 -0.47,0.19 -1.12,0.39 -2.26,0.58 -3.39,0.58 -1.39,0 -2.74,-0.29 -3.99,-0.82 -5.26,0.71 -9.74,-0.29 -13.31,-1.86 -2.52,5.88 -1.54,11.78 -1.54,11.78 0,0 5.6,0.7 11.96,-1.78 3.63,-1.42 7.51,-3.88 10.73,-8.1 z"
       id="path19"
       style="fill:url(#linear-gradient5)" />
    <path
       class="st4"
       d="M 23.02,36.44 C 20.59,35.41 18.56,33.46 17.51,30.86 13.29,27.64 10.84,23.77 9.42,20.14 3.48,22.52 0,27.38 0,27.38 c 0,0 3.47,4.46 9.71,7.2 3.57,1.57 8.05,2.57 13.31,1.86 z"
       id="path20"
       style="fill:url(#linear-gradient6)" />
    <path
       class="st5"
       d="M 17.5,30.85 C 17.44,30.7 17.37,30.55 17.32,30.39 16.44,27.89 16.6,25.29 17.56,23.02 16.85,17.76 17.85,13.28 19.42,9.7 13.54,7.18 7.64,8.16 7.64,8.16 c 0,0 -0.7,5.6 1.78,11.96 1.42,3.63 3.87,7.5 8.09,10.72 z"
       id="path21"
       style="fill:url(#linear-gradient7)" />
    <path
       class="st10"
       d="m 23.6,17.33 c -0.16,0.06 -0.31,0.13 -0.46,0.19 -2.6,1.06 -4.55,3.08 -5.58,5.51 -0.95,2.27 -1.12,4.87 -0.24,7.37 0.05,0.16 0.12,0.31 0.18,0.46 1.06,2.6 3.08,4.56 5.51,5.58 1.25,0.53 2.61,0.82 3.99,0.82 1.12,0 2.27,-0.19 3.39,-0.58 0.16,-0.06 0.31,-0.13 0.47,-0.19 2.37,-0.96 4.27,-2.73 5.38,-5.05 0.07,-0.15 0.13,-0.31 0.2,-0.46 0.99,-2.35 1.09,-4.95 0.24,-7.37 -0.06,-0.16 -0.13,-0.31 -0.19,-0.47 -1.06,-2.6 -3.08,-4.55 -5.51,-5.57 -2.26,-0.95 -4.87,-1.12 -7.37,-0.24 z m 11.82,6.71 c 1.63,4.65 -0.81,9.75 -5.47,11.38 -4.65,1.63 -9.75,-0.81 -11.38,-5.47 -1.63,-4.65 0.81,-9.75 5.47,-11.38 4.65,-1.63 9.75,0.81 11.38,5.47 z"
       id="path22" />
  </g>
</svg>
