<?xml version="1.0" encoding="UTF-8"?>
<svg id="Layer_1" xmlns="http://www.w3.org/2000/svg" xmlns:xlink="http://www.w3.org/1999/xlink" version="1.1" viewBox="0 0 167 54">
  <!-- Generator: Adobe Illustrator 29.8.3, SVG Export Plug-In . SVG Version: 2.1.1 Build 3)  -->
  <defs>
    <style>
      .st0 {
        fill: #a67c00;
      }

      .st1 {
        fill: url(#linear-gradient2);
      }

      .st2 {
        fill: url(#linear-gradient1);
      }

      .st3 {
        fill: url(#linear-gradient3);
      }

      .st4 {
        fill: url(#linear-gradient6);
      }

      .st5 {
        fill: url(#linear-gradient7);
      }

      .st6 {
        fill: url(#linear-gradient5);
      }

      .st7 {
        fill: url(#linear-gradient4);
      }

      .st8 {
        fill: url(#linear-gradient);
      }

      .st9 {
        fill: #dfbd69;
      }

      .st10 {
        fill: #a57d2d;
      }
    </style>
    <linearGradient id="linear-gradient" x1="32.82" y1="13.97" x2="18.73" y2="10.74" gradientUnits="userSpaceOnUse">
      <stop offset="0" stop-color="#fff"/>
      <stop offset="1" stop-color="#a67c00"/>
    </linearGradient>
    <linearGradient id="linear-gradient1" x1="40.33" y1="21.9" x2="32.65" y2="9.65" xlink:href="#linear-gradient"/>
    <linearGradient id="linear-gradient2" x1="40.03" y1="32.82" x2="43.26" y2="18.73" xlink:href="#linear-gradient"/>
    <linearGradient id="linear-gradient3" x1="32.1" y1="40.33" x2="44.35" y2="32.65" xlink:href="#linear-gradient"/>
    <linearGradient id="linear-gradient4" x1="21.18" y1="40.03" x2="35.27" y2="43.26" xlink:href="#linear-gradient"/>
    <linearGradient id="linear-gradient5" x1="13.67" y1="32.1" x2="21.35" y2="44.35" xlink:href="#linear-gradient"/>
    <linearGradient id="linear-gradient6" x1="13.97" y1="21.18" x2="10.74" y2="35.27" xlink:href="#linear-gradient"/>
    <linearGradient id="linear-gradient7" x1="21.9" y1="13.66" x2="9.65" y2="21.35" xlink:href="#linear-gradient"/>
  </defs>
  <g>
    <g>
      <path class="st9" d="M67.66,46.01h-4.29v-10.08h4.11c2.5,0,3.52,1.09,3.52,2.69,0,1.17-.83,1.97-1.9,2.16,1.23.21,2.19,1.02,2.19,2.46,0,1.75-1.28,2.77-3.63,2.77ZM64.72,40.28h2.82c1.46,0,2.08-.62,2.08-1.6s-.62-1.62-2.08-1.62h-2.82v3.22ZM64.72,41.35v3.52h2.91c1.5,0,2.29-.66,2.29-1.74s-.78-1.78-2.29-1.78h-2.91Z"/>
      <path class="st9" d="M85.39,46.01c-.19-.27-.34-1.01-.42-2.19-.06-1.12-.59-1.87-1.97-1.87h-2.85v4.07h-1.36v-10.08h4.1c2.56,0,3.79,1.18,3.79,2.98,0,1.55-1.06,2.37-2.29,2.51,1.23.24,1.82.99,1.92,2.18.13,1.47.18,2.05.51,2.42h-1.44ZM82.81,40.84c1.71,0,2.48-.64,2.48-1.89,0-1.15-.77-1.89-2.48-1.89h-2.66v3.78h2.66Z"/>
      <path class="st9" d="M98.74,46.2c-2.95,0-5.01-2.13-5.01-5.23s2.06-5.23,5.01-5.23,5.01,2.13,5.01,5.23-2.08,5.23-5.01,5.23ZM98.74,36.91c-2.18,0-3.59,1.58-3.59,4.05s1.41,4.05,3.59,4.05,3.57-1.58,3.57-4.05-1.39-4.05-3.57-4.05Z"/>
      <path class="st9" d="M119.3,44.31h.06l2.06-8.39h1.3l-2.58,10.08h-1.62l-2.1-8.05h-.06l-2.15,8.05h-1.6l-2.58-10.08h1.34l2.11,8.36h.06l2.19-8.36h1.3l2.24,8.39Z"/>
      <path class="st9" d="M130.27,42.32c.08,1.84,1.34,2.79,3.04,2.79,1.5,0,2.45-.64,2.45-1.74,0-.93-.61-1.38-1.92-1.63l-2-.38c-1.49-.29-2.51-1.09-2.51-2.66,0-1.76,1.39-2.96,3.6-2.96,2.53,0,3.99,1.34,4,3.62l-1.26.06c-.05-1.67-1.06-2.61-2.72-2.61-1.46,0-2.27.69-2.27,1.81,0,.99.66,1.31,1.82,1.54l1.83.35c1.84.35,2.77,1.15,2.77,2.77,0,1.86-1.6,2.93-3.78,2.93-2.48,0-4.29-1.36-4.29-3.79l1.25-.08Z"/>
      <path class="st9" d="M151.78,46.01h-7.19v-10.08h7.04v1.15h-5.7v3.17h4.53v1.14h-4.53v3.47h5.84v1.15Z"/>
      <path class="st9" d="M165.56,46.01c-.19-.27-.34-1.01-.42-2.19-.06-1.12-.59-1.87-1.97-1.87h-2.85v4.07h-1.36v-10.08h4.1c2.56,0,3.79,1.18,3.79,2.98,0,1.55-1.06,2.37-2.29,2.51,1.23.24,1.82.99,1.92,2.18.13,1.47.18,2.05.51,2.42h-1.44ZM162.98,40.84c1.71,0,2.48-.64,2.48-1.89,0-1.15-.77-1.89-2.48-1.89h-2.66v3.78h2.66Z"/>
    </g>
    <g>
      <path class="st0" d="M63.17,27.98V8.18h4.78v7.83h8.64v-7.83h4.78v19.8h-4.78v-8.11h-8.64v8.11h-4.78Z"/>
      <path class="st0" d="M94.39,28.36c-5.75,0-10.15-4.18-10.15-10.28s4.4-10.28,10.15-10.28,10.18,4.18,10.18,10.28-4.4,10.28-10.18,10.28ZM94.39,11.98c-3.21,0-5.25,2.42-5.25,6.1s2.04,6.1,5.25,6.1,5.28-2.42,5.28-6.1-2.04-6.1-5.28-6.1Z"/>
      <path class="st0" d="M107.44,8.18h7.67c6.51,0,10.53,3.71,10.53,9.9s-4.02,9.9-10.53,9.9h-7.67V8.18ZM114.79,24.21c3.74,0,5.91-2.26,5.91-6.16s-2.17-6.1-5.91-6.1h-2.58v12.26h2.58Z"/>
      <path class="st0" d="M137.7,28.36c-5.75,0-10.15-4.18-10.15-10.28s4.4-10.28,10.15-10.28,10.18,4.18,10.18,10.28-4.4,10.28-10.18,10.28ZM137.7,11.98c-3.21,0-5.25,2.42-5.25,6.1s2.04,6.1,5.25,6.1,5.28-2.42,5.28-6.1-2.04-6.1-5.28-6.1Z"/>
      <path class="st0" d="M154.04,20.78c.19,2.74,2.23,3.83,4.68,3.83,2.11,0,3.43-.82,3.43-2.14s-1.16-1.63-2.89-1.98l-3.71-.66c-3.14-.6-5.38-2.36-5.38-5.72,0-3.9,3.05-6.32,7.86-6.32,5.38,0,8.3,2.67,8.39,7.07l-4.4.13c-.13-2.33-1.73-3.46-4.02-3.46-2.01,0-3.14.82-3.14,2.17,0,1.13.88,1.54,2.33,1.82l3.71.66c4.05.72,5.91,2.73,5.91,5.97,0,4.09-3.55,6.19-8.08,6.19-5.28,0-9.05-2.61-9.05-7.42l4.37-.16Z"/>
    </g>
  </g>
  <g>
    <path class="st8" d="M17.56,23.03c1.02-2.43,2.97-4.46,5.58-5.51,3.22-4.22,7.09-6.68,10.73-8.1C31.49,3.48,26.62,0,26.62,0c0,0-4.46,3.47-7.2,9.71-1.57,3.57-2.57,8.05-1.86,13.32Z"/>
    <path class="st2" d="M23.14,17.51c.15-.06.3-.13.46-.19,2.5-.88,5.1-.72,7.37.24,5.26-.71,9.75.29,13.32,1.86,2.52-5.88,1.54-11.78,1.54-11.78,0,0-5.6-.7-11.96,1.78-3.63,1.42-7.51,3.88-10.73,8.1Z"/>
    <path class="st1" d="M54,26.62s-3.47-4.46-9.71-7.2c-3.57-1.57-8.06-2.57-13.32-1.86,2.43,1.02,4.45,2.97,5.51,5.57,4.22,3.22,6.69,7.1,8.1,10.73,5.94-2.38,9.42-7.24,9.42-7.24Z"/>
    <path class="st3" d="M36.48,23.14c.06.16.13.31.19.47.85,2.42.76,5.02-.24,7.37.71,5.26-.29,9.74-1.86,13.31,5.88,2.52,11.78,1.54,11.78,1.54,0,0,.7-5.6-1.78-11.96-1.42-3.63-3.88-7.51-8.1-10.73Z"/>
    <path class="st7" d="M36.44,30.98c-.07.15-.12.31-.2.46-1.11,2.32-3.02,4.09-5.38,5.05-3.22,4.22-7.09,6.68-10.73,8.1,2.38,5.94,7.24,9.42,7.24,9.42,0,0,4.46-3.47,7.2-9.71,1.57-3.57,2.57-8.05,1.86-13.31Z"/>
    <path class="st6" d="M30.86,36.49c-.16.06-.31.13-.47.19-1.12.39-2.26.58-3.39.58-1.39,0-2.74-.29-3.99-.82-5.26.71-9.74-.29-13.31-1.86-2.52,5.88-1.54,11.78-1.54,11.78,0,0,5.6.7,11.96-1.78,3.63-1.42,7.51-3.88,10.73-8.1Z"/>
    <path class="st4" d="M23.02,36.44c-2.43-1.03-4.46-2.98-5.51-5.58-4.22-3.22-6.67-7.09-8.09-10.72C3.48,22.52,0,27.38,0,27.38c0,0,3.47,4.46,9.71,7.2,3.57,1.57,8.05,2.57,13.31,1.86Z"/>
    <path class="st5" d="M17.5,30.85c-.06-.15-.13-.3-.18-.46-.88-2.5-.72-5.1.24-7.37-.71-5.26.29-9.74,1.86-13.32-5.88-2.52-11.78-1.54-11.78-1.54,0,0-.7,5.6,1.78,11.96,1.42,3.63,3.87,7.5,8.09,10.72Z"/>
    <path class="st10" d="M23.6,17.33c-.16.06-.31.13-.46.19-2.6,1.06-4.55,3.08-5.58,5.51-.95,2.27-1.12,4.87-.24,7.37.05.16.12.31.18.46,1.06,2.6,3.08,4.56,5.51,5.58,1.25.53,2.61.82,3.99.82,1.12,0,2.27-.19,3.39-.58.16-.06.31-.13.47-.19,2.37-.96,4.27-2.73,5.38-5.05.07-.15.13-.31.2-.46.99-2.35,1.09-4.95.24-7.37-.06-.16-.13-.31-.19-.47-1.06-2.6-3.08-4.55-5.51-5.57-2.26-.95-4.87-1.12-7.37-.24ZM35.42,24.04c1.63,4.65-.81,9.75-5.47,11.38-4.65,1.63-9.75-.81-11.38-5.47-1.63-4.65.81-9.75,5.47-11.38,4.65-1.63,9.75.81,11.38,5.47Z"/>
  </g>
</svg>